<svg xmlns="http://www.w3.org/2000/svg" viewBox="216.0 280.0 1834.6 719.0" width="1835" height="719">
  <rect x="216.0" y="280.0" width="1834.6" height="719.0" fill="#000"/>
  <polygon fill="#fff" points="346,320 1023,320 620.6,865 1002.3,865 933,959 256,959 658.2,414 276.7,414"/>
  <polygon fill="#fff" points="1090.1,865 1234.1,865 1164.7,959 1020.7,959"/>
  <polygon fill="#fff" points="1410.1,865 1602.1,865 1555.6,928 1363.6,928"/>
  <polygon fill="#fff" points="1363.6,928 1555.6,928 1532.7,959 1340.7,959"/>
  <polygon fill="#fff" points="1602.1,865 1666.1,865 1619.6,928 1555.6,928"/>
  <polygon fill="#fff" points="1666.1,865 1762.1,865 1715.6,928 1619.6,928"/>
  <polygon fill="#fff" points="1619.6,928 1715.6,928 1692.7,959 1596.7,959"/>
  <polygon fill="#fff" points="1469.8,784 1661.8,784 1602.1,865 1410.1,865"/>
  <polygon fill="#fff" points="1517,720 1709,720 1661.8,784 1469.8,784"/>
  <polygon fill="#fff" points="1709,720 1773,720 1725.8,784 1661.8,784"/>
  <polygon fill="#fff" points="1773,720 1869,720 1821.8,784 1725.8,784"/>
  <polygon fill="#fff" points="1725.8,784 1821.8,784 1762.1,865 1666.1,865"/>
  <polygon fill="#fff" points="1843.8,624 1939.8,624 1869,720 1773,720"/>
  <polygon fill="#fff" points="1914.6,528 2010.6,528 1939.8,624 1843.8,624"/>
  <polygon fill="#fff" points="1850.6,528 1914.6,528 1843.8,624 1779.8,624"/>
  <polygon fill="#fff" points="1658.6,528 1850.6,528 1779.8,624 1587.8,624"/>
</svg>
