<?xml version="1.0" encoding="UTF-8" standalone="no"?>
<svg
   viewBox="216.0 280.0 2191.6 719.0"
   width="2192"
   height="719"
   version="1.1"
   id="svg18"
   sodipodi:docname="Z-ai-alt_UNNAPROVED.svg"
   inkscape:version="1.4.4 (dcaf3e7, 2026-05-05)"
   xmlns:inkscape="http://www.inkscape.org/namespaces/inkscape"
   xmlns:sodipodi="http://sodipodi.sourceforge.net/DTD/sodipodi-0.dtd"
   xmlns="http://www.w3.org/2000/svg"
   xmlns:svg="http://www.w3.org/2000/svg">
  <defs
     id="defs18" />
  <sodipodi:namedview
     id="namedview18"
     pagecolor="#ffffff"
     bordercolor="#000000"
     borderopacity="0.25"
     inkscape:showpageshadow="2"
     inkscape:pageopacity="0.0"
     inkscape:pagecheckerboard="0"
     inkscape:deskcolor="#d1d1d1"
     inkscape:zoom="0.28645567"
     inkscape:cx="1415.5768"
     inkscape:cy="829.09863"
     inkscape:window-width="1920"
     inkscape:window-height="1009"
     inkscape:window-x="-8"
     inkscape:window-y="-8"
     inkscape:window-maximized="1"
     inkscape:current-layer="svg18" />
  <rect
     x="216.0"
     y="280.0"
     width="2191.6"
     height="719.0"
     fill="#000"
     id="rect1" />
  <polygon
     fill="#fff"
     points="346,320 1023,320 620.6,865 1002.3,865 933,959 256,959 658.2,414 276.7,414"
     id="polygon1" />
  <polygon
     fill="#fff"
     points="1330.8,864 1260.7,959 1388.7,959 1458.8,864"
     id="polygon2"
     style="stroke:#ffffff;stroke-opacity:1" />
  <polygon
     fill="#fff"
     points="1698.8,864 1628.7,959 1788.7,959 1858.8,864"
     id="polygon3"
     style="stroke:#ffffff;stroke-opacity:1" />
  <polygon
     fill="#fff"
     points="1757.8,784 1698.8,864 1858.8,864 1917.8,784"
     id="polygon4"
     style="stroke:#ffffff;stroke-opacity:1" />
  <polygon
     fill="#fff"
     points="1389.8,784 1330.8,864 1458.8,864 1517.8,784"
     id="polygon5"
     style="stroke:#ffffff;stroke-opacity:1" />
  <polygon
     fill="#fff"
     points="1425.2,736 1389.8,784 1517.8,784 1553.2,736"
     id="polygon6"
     style="stroke:#ffffff;stroke-opacity:1" />
  <polygon
     fill="#fff"
     points="1793.2,736 1757.8,784 1917.8,784 1953.2,736"
     id="polygon7"
     style="stroke:#ffffff;stroke-opacity:1" />
  <polygon
     fill="#fff"
     points="1828.6,688 1793.2,736 1953.2,736 1988.6,688"
     id="polygon8"
     style="stroke:#ffffff;stroke-opacity:1" />
  <polygon
     fill="#fff"
     points="1887.6,608 1828.6,688 1988.6,688 2047.6,608"
     id="polygon9"
     style="stroke:#ffffff;stroke-opacity:1" />
  <polygon
     fill="#fff"
     points="1647.6,608 1588.6,688 1828.6,688 1887.6,608"
     id="polygon10"
     style="stroke:#ffffff;stroke-opacity:1" />
  <polygon
     fill="#fff"
     points="1519.6,608 1460.6,688 1588.6,688 1647.6,608"
     id="polygon11"
     style="stroke:#ffffff;stroke-opacity:1" />
  <polygon
     fill="#fff"
     points="1954.8,864 1884.7,959 2108.7,959 2178.8,864"
     id="polygon12"
     style="stroke:#ffffff;stroke-opacity:1" />
  <polygon
     fill="#fff"
     points="2013.8,784 1954.8,864 2178.8,864 2237.8,784"
     id="polygon13"
     style="stroke:#ffffff;stroke-opacity:1" />
  <polygon
     fill="#fff"
     points="2049.2,736 2013.8,784 2237.8,784 2273.2,736"
     id="polygon14"
     style="stroke:#ffffff;stroke-opacity:1" />
  <polygon
     fill="#fff"
     points="2143.6,608 2084.6,688 2308.6,688 2367.6,608"
     id="polygon15" />
  <polygon
     fill="#fff"
     points="1106.8,864 1036.7,959 1148.7,959 1218.8,864"
     id="polygon16" />
  <polygon
     fill="#fff"
     points="1553.2,736 1517.8,784 1693.8,784 1729.2,736"
     id="polygon17"
     style="stroke:#ffffff;stroke-opacity:1" />
  <polygon
     fill="#fff"
     points="1458.8,864 1388.7,959 1564.7,959 1634.8,864"
     id="polygon18"
     style="stroke:#ffffff;stroke-opacity:1" />
</svg>
