<svg xmlns="http://www.w3.org/2000/svg" viewBox="216.0 280.0 2191.6 719.0" width="2192" height="719">
  <rect x="216.0" y="280.0" width="2191.6" height="719.0" fill="#000"/>
  <polygon fill="#fff" points="346,320 1023,320 620.6,865 1002.3,865 933,959 256,959 658.2,414 276.7,414"/>
  <polygon fill="#fff" points="1330.8,864 1260.7,959 1388.7,959 1458.8,864"/>
  <polygon fill="#fff" points="1698.8,864 1628.7,959 1788.7,959 1858.8,864"/>
  <polygon fill="#fff" points="1757.8,784 1698.8,864 1858.8,864 1917.8,784"/>
  <polygon fill="#fff" points="1389.8,784 1330.8,864 1458.8,864 1517.8,784"/>
  <polygon fill="#fff" points="1425.2,736 1389.8,784 1517.8,784 1553.2,736"/>
  <polygon fill="#fff" points="1793.2,736 1757.8,784 1917.8,784 1953.2,736"/>
  <polygon fill="#fff" points="1828.6,688 1793.2,736 1953.2,736 1988.6,688"/>
  <polygon fill="#fff" points="1887.6,608 1828.6,688 1988.6,688 2047.6,608"/>
  <polygon fill="#fff" points="1647.6,608 1588.6,688 1828.6,688 1887.6,608"/>
  <polygon fill="#fff" points="1519.6,608 1460.6,688 1588.6,688 1647.6,608"/>
  <polygon fill="#fff" points="1954.8,864 1884.7,959 2108.7,959 2178.8,864"/>
  <polygon fill="#fff" points="2013.8,784 1954.8,864 2178.8,864 2237.8,784"/>
  <polygon fill="#fff" points="2049.2,736 2013.8,784 2237.8,784 2273.2,736"/>
  <polygon fill="#fff" points="2143.6,608 2084.6,688 2308.6,688 2367.6,608"/>
  <polygon fill="#fff" points="1106.8,864 1036.7,959 1148.7,959 1218.8,864"/>
  <polygon fill="#fff" points="1553.2,736 1517.8,784 1693.8,784 1729.2,736"/>
  <polygon fill="#fff" points="1458.8,864 1388.7,959 1564.7,959 1634.8,864"/>
</svg>
